<?xml version="1.0" encoding="iso-8859-1"?>
<!-- Generator: Adobe Illustrator 19.0.0, SVG Export Plug-In . SVG Version: 6.00 Build 0)  -->
<svg version="1.1" id="Layer_1" xmlns="http://www.w3.org/2000/svg" xmlns:xlink="http://www.w3.org/1999/xlink" x="0px" y="0px"
	 viewBox="0 0 512 512" style="enable-background:new 0 0 512 512;" xml:space="preserve">
<g>
	<g>
		<path d="M345.031,278.293h-16.693v-57.162c0-4.191-3.397-7.588-7.588-7.588s-7.588,3.397-7.588,7.588v57.162H198.838V163.969
			h114.324v26.305c0,4.191,3.397,7.588,7.588,7.588s7.588-3.397,7.588-7.588v-33.893c0-4.191-3.397-7.588-7.588-7.588h-8.6V61.167
			c0-9.063-5.036-17.212-13.143-21.265L222.544,1.67c-4.897-2.448-10.601-2.192-15.258,0.686c-4.657,2.878-7.437,7.865-7.437,13.339
			v133.098h-8.6c-4.191,0-7.588,3.397-7.588,7.588v121.912h-16.693c-4.191,0-7.588,3.397-7.588,7.588v97.631
			c0,4.191,3.397,7.588,7.588,7.588c4.19,0,7.588-3.397,7.588-7.588v-41.48h162.887v130.006c0,13.667-11.12,24.787-24.787,24.787
			H199.344c-13.667,0-24.787-11.12-24.787-24.787v-57.162c0-4.19-3.397-7.588-7.588-7.588c-4.191,0-7.588,3.397-7.588,7.588v57.162
			c0,22.035,17.928,39.963,39.963,39.963h113.312c22.035,0,39.963-17.928,39.963-39.963V285.881
			C352.619,281.69,349.222,278.293,345.031,278.293z M215.265,15.266c0.241-0.148,0.398-0.069,0.493-0.022l76.464,38.232
			c2.932,1.466,4.754,4.414,4.754,7.692v87.626h-81.949V15.696h-0.001C215.025,15.59,215.025,15.413,215.265,15.266z
			 M337.443,326.855H174.557v-33.387h162.887V326.855z"/>
	</g>
</g>
<g>
	<g>
		<path d="M450.25,415.887c-13.667,0-24.787-11.12-24.787-24.787c0-4.191-3.397-7.588-7.588-7.588c-4.19,0-7.588,3.397-7.588,7.588
			c0,13.667-11.12,24.787-24.787,24.787c-4.191,0-7.588,3.397-7.588,7.588c0,4.191,3.397,7.588,7.588,7.588
			c13.667,0,24.787,11.12,24.787,24.787c0,4.19,3.397,7.588,7.588,7.588c4.191,0,7.588-3.397,7.588-7.588
			c0-13.667,11.12-24.787,24.787-24.787c4.19,0,7.588-3.397,7.588-7.588C457.838,419.284,454.44,415.887,450.25,415.887z
			 M417.875,432.445c-2.496-3.442-5.528-6.475-8.971-8.971c3.442-2.496,6.475-5.528,8.971-8.971
			c2.496,3.442,5.528,6.475,8.971,8.971C423.403,425.97,420.371,429.002,417.875,432.445z"/>
	</g>
</g>
<g>
	<g>
		<path d="M118.406,245.918c-13.667,0-24.787-11.12-24.787-24.787c0-4.191-3.397-7.588-7.588-7.588s-7.588,3.397-7.588,7.588
			c0,13.667-11.12,24.787-24.787,24.787c-4.191,0-7.588,3.397-7.588,7.588c0,4.191,3.397,7.588,7.588,7.588
			c13.667,0,24.787,11.12,24.787,24.787c0,4.19,3.397,7.588,7.588,7.588s7.588-3.397,7.588-7.588
			c0-13.667,11.12-24.787,24.787-24.787c4.191,0,7.588-3.397,7.588-7.588C125.994,249.315,122.597,245.918,118.406,245.918z
			 M86.031,262.477c-2.496-3.442-5.528-6.475-8.971-8.971c3.442-2.496,6.475-5.528,8.971-8.971c2.496,3.442,5.528,6.475,8.971,8.971
			C91.559,256.002,88.527,259.034,86.031,262.477z"/>
	</g>
</g>
<g>
	<g>
		<path d="M458.343,84.043c-18.13,0-32.881-14.751-32.881-32.881c0-4.191-3.397-7.588-7.588-7.588c-4.19,0-7.588,3.397-7.588,7.588
			c0,18.13-14.751,32.881-32.881,32.881c-4.191,0-7.588,3.397-7.588,7.588s3.397,7.588,7.588,7.588
			c18.13,0,32.881,14.751,32.881,32.881c0,4.191,3.397,7.588,7.588,7.588c4.191,0,7.588-3.397,7.588-7.588
			c0-18.13,14.751-32.881,32.881-32.881c4.19,0,7.588-3.397,7.588-7.588S462.534,84.043,458.343,84.043z M417.875,106.207
			c-3.751-5.842-8.734-10.824-14.576-14.576c5.842-3.751,10.824-8.734,14.576-14.576c3.751,5.842,8.734,10.824,14.576,14.576
			C426.609,95.383,421.626,100.365,417.875,106.207z"/>
	</g>
</g>
<g>
</g>
<g>
</g>
<g>
</g>
<g>
</g>
<g>
</g>
<g>
</g>
<g>
</g>
<g>
</g>
<g>
</g>
<g>
</g>
<g>
</g>
<g>
</g>
<g>
</g>
<g>
</g>
<g>
</g>
</svg>
