<svg height="29" width="41" xmlns="http://www.w3.org/2000/svg"><g fill="#010202" fill-rule="evenodd"><path d="M22.872 24.037c-.358.471-.26 1.14.216 1.493a1.087 1.087 0 0 0 1.51-.213l6.509-8.58-1.173-2.01z"/><path d="M40.858 11.351a1.08 1.08 0 0 0-.94-.541h-6.473c-.34 0-.659.158-.863.426l-.219.29-6.33-10.84a1.086 1.086 0 0 0-1.472-.39 1.06 1.06 0 0 0-.395 1.456l8.091 13.858c.2.342.563.533.936.533l.024-.001c.175-.004.352-.049.514-.142a1.06 1.06 0 0 0 .395-1.457l-.589-1.009.449-.591h4.028l-8.416 13.868H16.271l11.544-14.268c.259-.32.31-.76.13-1.129a1.08 1.08 0 0 0-.973-.604H13.289l-1.246 2.133h12.685L13.183 27.211c-.259.32-.31.759-.13 1.128.18.37.558.605.973.605h16.182c.379 0 .73-.196.925-.518l9.71-16.001c.2-.33.205-.74.013-1.074"/><path d="M16.578 1.752a1.065 1.065 0 0 0-.395-1.456 1.086 1.086 0 0 0-1.474.39L8.798 10.81h-7.72a1.08 1.08 0 0 0-.892.47 1.053 1.053 0 0 0-.109.993L6.55 28.274a1.077 1.077 0 0 0 1.002.67c.337 0 .658-.156.863-.427l9.71-12.8a1.06 1.06 0 0 0-.216-1.494 1.087 1.087 0 0 0-1.51.213L7.84 25.719 2.672 12.943h4.88l-.934 1.6A1.06 1.06 0 0 0 7.013 16a1.081 1.081 0 0 0 1.474-.39l.07-.122 8.021-13.736z"/></g></svg>