<svg enable-background="new 0 0 512.001 512.001" viewBox="0 0 512.001 512.001" xmlns="http://www.w3.org/2000/svg"><path d="m461.403 49.677c-1.827-1.422-4.208-1.919-6.451-1.35-2.628.667-62.235 16.452-102.145 80.101-1.713-1.775-3.508-3.494-5.384-5.153l-17.083-102.504c-2.007-12.036-12.319-20.771-24.522-20.771-13.707 0-24.859 11.152-24.859 24.859v40.129c0 2.279-.888 4.422-2.5 6.034-1.611 1.611-3.753 2.498-6.032 2.498s-4.422-.887-6.033-2.499c-1.611-1.611-2.499-3.754-2.499-6.033v-40.129c0-13.707-11.152-24.859-24.859-24.859-12.203 0-22.515 8.736-24.521 20.771l-17.086 102.518c-1.874 1.661-3.659 3.387-5.369 5.162-39.909-63.667-99.53-79.456-102.158-80.123-2.246-.569-4.625-.072-6.451 1.35-1.827 1.421-2.895 3.605-2.895 5.92 0 .979.135 24.269 11.843 49.662 10.251 22.234 31.448 49.988 74.7 60.153-8.657 5.631-14.398 15.384-14.398 26.459v8.016c0 15.344 11.012 28.157 25.546 30.969 4.758 19.05 21.567 86.296 28.799 114.438 1.39 5.408 3.373 10.412 5.899 14.986-12.182-.725-33.081-2.634-57.5-7.636 4.705-11.697 5.579-25.456 2.27-39.159-4.256-17.62-14.689-32.193-28.625-39.982-3.418-1.911-7.733-.869-9.903 2.392-8.845 13.291-11.478 31.02-7.222 48.64 1.651 6.838 4.244 13.209 7.6 18.911-17.323-5.414-35.108-12.518-51.915-21.855-3.621-2.011-8.187-.707-10.198 2.914-2.012 3.621-.707 8.188 2.914 10.199 5.383 2.99 10.844 5.757 16.343 8.328-1.231.494-2.452 1.023-3.646 1.625-13.343 6.724-22.785 19.473-25.256 34.104-.547 3.235 1.074 6.451 4 7.937 6.612 3.357 13.88 5.035 21.164 5.035 7.292-.001 14.599-1.683 21.273-5.047 11.426-5.759 19.976-15.941 23.753-27.934 11.578 3.53 22.884 6.327 33.547 8.542-6.991 4.736-13.263 11.064-18.327 18.661-10.055 15.083-13.68 32.636-9.945 48.157.822 3.414 3.875 5.746 7.285 5.746.393 0 .792-.031 1.191-.095 15.765-2.522 30.573-12.619 40.628-27.702 8.202-12.303 12.121-26.25 11.262-39.397 16.192 2.073 28.811 2.746 35.503 2.962 6.192 25.517 24.059 44.088 45.787 47.595v81.278c0 4.143 3.358 7.5 7.5 7.5s7.5-3.357 7.5-7.5v-81.28c24.031-3.867 43.286-26.114 47.33-55.83 4.832-6.318 8.401-13.725 10.552-22.096 4.812-18.726 13.863-54.762 20.785-82.396l34.666 242.663c.535 3.741 3.743 6.44 7.416 6.44.353 0 .71-.025 1.07-.076 4.101-.586 6.95-4.385 6.364-8.485l-39.024-273.171c13.288-3.715 23.067-15.923 23.067-30.381v-8.016c0-4.143-3.358-7.5-7.5-7.5s-7.5 3.357-7.5 7.5v8.016c0 9.125-7.423 16.549-16.548 16.549s-16.548-7.424-16.548-16.549v-8.016c0-9.125 7.423-16.549 16.548-16.549.051 0 .102-.001.152-.002l6.062-.123c2.277-.046 4.409-1.124 5.796-2.931 1.321-1.72 1.818-3.923 1.394-6.04 45.777-9.408 67.904-38.103 78.446-60.968 11.708-25.394 11.843-48.684 11.843-49.662-.001-2.315-1.069-4.499-2.896-5.92zm-373.911 323.612c-7.292 3.675-15.676 4.411-23.347 2.211 2.795-7.476 8.376-13.775 15.667-17.45s15.676-4.412 23.347-2.211c-2.794 7.474-8.375 13.775-15.667 17.45zm54.088-26.374c-7.089-6.24-12.511-15.461-15.033-25.903-2.523-10.443-1.906-21.122 1.553-29.909 7.088 6.24 12.512 15.461 15.034 25.903 2.521 10.441 1.904 21.122-1.554 29.909zm18.316 56.823c-5.959 8.938-14.223 15.732-23.024 19.154-.227-9.44 2.866-19.682 8.825-28.62s14.222-15.732 23.024-19.154c.227 9.442-2.866 19.682-8.825 28.62zm-53.651-304.276c-5.857-12.538-8.506-24.686-9.703-33.007 18.542 7.432 58.072 27.871 85.504 74.408-2.371 3.558-4.443 7.256-6.207 11.065-32.801-6.178-56.21-23.817-69.594-52.466zm166.182 309.36c-14.149 0-27.053-9.849-34.352-24.75.192.095.375.199.569.292 13.371 6.433 26.906 7.394 33.785 7.394 6.878 0 20.413-.961 33.784-7.394.197-.095.384-.201.58-.298-7.291 14.912-20.189 24.756-34.366 24.756zm56.629-216.951v8.016c0 14.177 9.4 26.197 22.293 30.161-5.526 22.121-21.168 84.664-28.068 111.514-8.392 32.658-41.045 35.196-50.853 35.196s-42.462-2.538-50.854-35.196c-6.899-26.849-22.542-89.394-28.068-111.514 12.893-3.965 22.292-15.984 22.292-30.161v-8.016c0-4.143-3.358-7.5-7.5-7.5s-7.5 3.357-7.5 7.5v8.016c0 9.125-7.423 16.549-16.548 16.549s-16.548-7.424-16.548-16.549v-8.016c0-9.125 7.423-16.549 16.548-16.549 4.142 0 7.5-3.357 7.5-7.5 0-2.738-1.471-5.125-3.661-6.435 11.736-29.508 45.756-50.194 84.339-50.194 5.029 0 10.075.349 14.997 1.036 4.11.567 7.893-2.287 8.465-6.39.573-4.103-2.288-7.893-6.39-8.466-5.606-.783-11.351-1.181-17.072-1.181-20.587 0-40.764 5.227-57.748 14.833l14.631-87.788c.795-4.773 4.886-8.238 9.725-8.238 5.437 0 9.859 4.423 9.859 9.859v40.129c0 6.286 2.448 12.195 6.893 16.641 4.444 4.444 10.354 6.892 16.64 6.892s12.195-2.447 16.639-6.892c4.445-4.444 6.894-10.354 6.894-16.641v-40.128c0-5.437 4.423-9.859 9.859-9.859 4.839 0 8.93 3.465 9.726 8.238l14.629 87.777c-2.075-1.176-4.202-2.297-6.388-3.351-3.733-1.799-8.214-.233-10.013 3.499-1.799 3.73-.232 8.214 3.499 10.013 18.535 8.936 32.404 22.999 39.193 39.417-15.447 2.034-27.41 15.286-27.41 31.278zm109.778-92.892c-13.338 28.929-36.816 46.728-69.801 52.946-1.766-3.823-3.845-7.524-6.214-11.08 27.345-46.357 66.949-66.882 85.507-74.364-1.174 8.184-3.768 20.081-9.492 32.498z"/><path d="m253.683 322.843-8.017-8.017c-2.928-2.929-7.677-2.93-10.606-.001s-2.929 7.678 0 10.606l8.017 8.017c1.464 1.465 3.384 2.197 5.303 2.197s3.839-.732 5.303-2.196c2.929-2.929 2.929-7.678 0-10.606z"/><path d="m309.796 314.825c-2.93-2.928-7.679-2.929-10.607.001l-8.016 8.017c-2.929 2.929-2.929 7.678 0 10.606 1.464 1.464 3.384 2.196 5.303 2.196s3.839-.732 5.303-2.197l8.017-8.017c2.929-2.929 2.928-7.678 0-10.606z"/></svg>