<svg height="26" width="32" xmlns="http://www.w3.org/2000/svg"><path d="M31.939 3.092a13.31 13.31 0 0 1-3.767 1.033 6.61 6.61 0 0 0 2.884-3.63 13.55 13.55 0 0 1-4.17 1.578A6.56 6.56 0 0 0 15.539 6.55c0 .52.06 1.02.17 1.5-5.453-.258-10.287-2.877-13.521-6.835a6.43 6.43 0 0 0-.888 3.3 6.56 6.56 0 0 0 2.917 5.461 6.54 6.54 0 0 1-2.97-.821v.081a6.564 6.564 0 0 0 5.26 6.436 6.661 6.661 0 0 1-2.949.113 6.582 6.582 0 0 0 6.139 4.556 13.157 13.157 0 0 1-8.136 2.807c-.52 0-1.039-.03-1.56-.09a18.66 18.66 0 0 0 10.076 2.946c12.072 0 18.665-9.995 18.665-18.648 0-.279 0-.56-.02-.84 1.282-.919 2.4-2.08 3.28-3.397l-.062-.027z" fill="#000" fill-rule="evenodd"/></svg>